<svg xmlns="http://www.w3.org/2000/svg" xmlns:xlink="http://www.w3.org/1999/xlink" width="48" height="48" viewBox="0 0 48 48">
    <defs>
        <path id="prefix__b" d="M0 0L33 0 33 32.948 0 32.948z"/>
        <path id="prefix__c" d="M0 0L32.697 0 32.697 33.501 0 33.501z"/>
        <linearGradient id="prefix__a" x1="0%" x2="100%" y1="0%" y2="100%">
            <stop offset="0%" stop-color="#F5515F"/>
            <stop offset="100%" stop-color="#9F041B"/>
        </linearGradient>
    </defs>
    <g fill="none" fill-rule="evenodd">
        <path fill="url(#prefix__a)" d="M16 0h16c8.837 0 16 7.163 16 16v16c0 8.837-7.163 16-16 16H16C7.163 48 0 40.837 0 32V16C0 7.163 7.163 0 16 0z"/>
        <g transform="translate(8 8)"/>
        <g transform="translate(7 7)">
            <mask id="prefix__d" fill="#fff">
                <use xlink:href="#prefix__c"/>
            </mask>
            <path fill="#FFF" d="M24.428 11.191c.309-.229.372-.666.142-.974-1.909-2.563-4.822-4.035-7.993-4.035-5.496 0-9.968 4.471-9.968 9.968l-.016.538c-.003.385.305.7.688.705h.01c.38 0 .689-.308.695-.688L8 16.15c0-4.73 3.847-8.577 8.576-8.577 2.728 0 5.234 1.267 6.879 3.474.229.308.663.373.972.144m-6.01-1.64c-.373-.097-.755.115-.858.484-.104.37.113.753.484.858 2.366.66 4.02 2.823 4.02 5.257 0 5.266-.668 10.669-1.987 16.064-.09.372.138.748.51.84.056.013.112.02.167.02.313 0 .597-.214.674-.532 1.345-5.5 2.028-11.016 2.028-16.392 0-3.056-2.073-5.769-5.038-6.599m-1.841 2.813c-2.088 0-3.786 1.699-3.786 3.786 0 .436-.017.87-.033 1.306l-.017.46c-.014.384.288.706.67.718.338.01.707-.286.72-.67l.017-.454c.017-.452.035-.905.035-1.36 0-1.32 1.074-2.395 2.394-2.395 1.321 0 2.395 1.074 2.395 2.395 0 4.54-.525 9.227-1.562 13.93-.083.374.155.745.529.828.05.01.102.017.151.017.318 0 .607-.223.678-.547 1.06-4.799 1.597-9.587 1.597-14.228 0-2.087-1.7-3.786-3.788-3.786m8.627.322c-.367.115-.569.506-.452.873.268.839.402 1.712.402 2.591 0 4.815-.544 9.779-1.62 14.753-.08.374.158.745.534.826.05.01.099.017.147.017.321 0 .609-.224.68-.55 1.095-5.071 1.652-10.133 1.652-15.046 0-1.023-.158-2.036-.47-3.013-.116-.366-.51-.57-.873-.451m6.814 4.328h-.016c-.377 0-.688.302-.695.68-.04 1.832-.153 3.682-.346 5.661-.04.382.24.724.622.76.025.002.047.004.07.004.354 0 .657-.27.69-.628.199-2.015.314-3.9.355-5.766.007-.385-.297-.703-.68-.71m-15.441-1.56c-.383 0-.695.312-.695.695 0 5.37-.772 10.911-2.297 16.47-.015.062-.025.124-.025.184 0 .308.204.586.512.671.062.019.123.026.185.026.305 0 .586-.204.671-.513 1.556-5.678 2.346-11.343 2.346-16.838 0-.383-.312-.695-.697-.695m0-12.364c-2.021 0-3.978.467-5.814 1.384-.343.173-.484.588-.31.933.17.343.587.482.931.31 1.642-.82 3.388-1.236 5.193-1.236 6.434 0 11.668 5.235 11.668 11.668 0 3.988-.363 8.103-1.08 12.231-.065.379.188.739.567.805.04.007.08.01.12.01.331 0 .625-.238.684-.577.73-4.205 1.102-8.4 1.102-12.469 0-7.2-5.86-13.059-13.061-13.059M8.997 7.3c.292-.25.326-.69.075-.98-.252-.292-.69-.323-.981-.076-2.906 2.493-4.573 6.103-4.573 9.906 0 3.257-.373 6.681-1.107 10.18-.078.376.161.745.538.824.048.01.096.016.144.016.321 0 .61-.226.68-.554.754-3.593 1.137-7.113 1.137-10.466 0-3.396 1.489-6.622 4.087-8.85m7.58-5.909c1.558 0 3.111.252 4.615.751.364.12.759-.078.88-.442.12-.364-.078-.757-.443-.877C19.983.277 18.283 0 16.577 0 7.672 0 .427 7.246.427 16.15c0 1.983-.142 4.039-.42 6.113-.051.381.214.732.595.783.032.003.063.006.094.006.343 0 .641-.253.688-.602.289-2.136.435-4.255.435-6.3 0-8.138 6.62-14.759 14.758-14.759m-3.264 18.907c-.386-.03-.72.25-.754.633-.317 3.61-.997 7.317-2.02 11.02-.102.371.114.753.485.855.062.018.124.026.186.026.306 0 .584-.202.669-.51 1.046-3.783 1.74-7.576 2.066-11.27.034-.383-.249-.721-.632-.754M23.878 3.342c4.168 2.386 6.93 6.642 7.387 11.385.034.36.337.63.69.63.022 0 .046-.002.069-.004.382-.037.661-.377.624-.759-.499-5.193-3.519-9.85-8.08-12.46-.335-.19-.758-.077-.948.259-.19.332-.076.759.258.949M9.12 27.792c-.374-.09-.746.15-.831.526-.184.816-.387 1.626-.601 2.426-.1.373.12.753.491.852.06.017.12.024.18.024.308 0 .588-.205.672-.516.219-.82.426-1.647.615-2.482.085-.374-.152-.745-.526-.83m-1.913-8.725c-.374-.005-.716.26-.743.644-.218 3.022-.718 6.126-1.486 9.227-.092.374.136.75.509.842.055.015.111.021.168.021.31 0 .595-.211.674-.528.787-3.18 1.298-6.363 1.522-9.463.028-.383-.26-.715-.644-.743m8.155-8.255c.374-.085.61-.457.524-.831-.086-.374-.456-.609-.833-.524-3.151.717-5.353 3.47-5.353 6.693 0 2.97-.277 6.076-.824 9.231-.065.38.189.74.567.804.04.008.079.01.12.01.331 0 .625-.237.684-.576.56-3.234.845-6.42.845-9.469 0-2.53 1.796-4.773 4.27-5.338" mask="url(#prefix__d)"/>
        </g>
    </g>
</svg>
